<svg width="19" height="19" viewBox="0 0 19 19" fill="none" xmlns="http://www.w3.org/2000/svg">
<path d="M15.5668 15.5669H12.8598V11.3275C12.8598 10.3166 12.8417 9.01519 11.4518 9.01519C10.0419 9.01519 9.82617 10.1167 9.82617 11.2539V15.5666H7.11921V6.8487H9.71791V8.0401H9.7543C10.0144 7.59541 10.3902 7.22959 10.8417 6.98159C11.2932 6.7336 11.8036 6.61271 12.3184 6.63181C15.0621 6.63181 15.5679 8.43655 15.5679 10.7844L15.5668 15.5669ZM4.0647 5.65708C3.19709 5.65722 2.49362 4.95397 2.49348 4.08636C2.49334 3.21875 3.19652 2.51528 4.06413 2.51514C4.93174 2.51492 5.6352 3.21818 5.63535 4.08579C5.63542 4.50243 5.46999 4.90204 5.17544 5.19671C4.88089 5.49139 4.48134 5.65698 4.0647 5.65708ZM5.41825 15.567H2.70836V6.8487H5.41818V15.5669L5.41825 15.567ZM16.9164 0.00108557H1.34811C0.61231 -0.00719303 0.00890071 0.582229 -9.15527e-05 1.31802V16.9512C0.00861524 17.6874 0.611953 18.2774 1.34803 18.2697H16.9164C17.654 18.2788 18.2597 17.6888 18.2699 16.9512V1.31681C18.2594 0.579588 17.6537 -0.00976225 16.9164 -0.000127677" fill="white"/>
</svg>
