<svg width="53" height="53" viewBox="0 0 53 53" fill="none" xmlns="http://www.w3.org/2000/svg">
<rect width="53" height="53" fill="#1A0B2E"/>
<path d="M41.9583 15.178C42.6346 15.5684 43.1953 16.1311 43.5833 16.8089C43.9712 17.4866 44.1725 18.255 44.1667 19.0359V33.4696C44.1665 34.2572 43.9557 35.0304 43.5562 35.7091C43.1566 36.3878 42.5828 36.9474 41.8943 37.3298L28.6443 45.7943C27.9883 46.1586 27.2504 46.3498 26.5 46.3498C25.7497 46.3498 25.0117 46.1586 24.3557 45.7943L11.1057 37.3298C10.4175 36.9476 9.84395 36.3884 9.44442 35.7101C9.0449 35.0318 8.83392 34.259 8.83334 33.4718V19.0359C8.83353 18.2483 9.04432 17.4751 9.44386 16.7964C9.84341 16.1177 10.4172 15.5581 11.1057 15.1758L24.3557 7.28759C25.031 6.91166 25.7911 6.71436 26.5641 6.71436C27.337 6.71436 28.0971 6.91166 28.7724 7.28759L42.0224 15.178H41.9583Z" stroke="white" stroke-width="2" stroke-linecap="round" stroke-linejoin="round"/>
<path d="M22.0833 26.5001H26.5C27.6714 26.5001 28.7948 26.0348 29.6231 25.2065C30.4513 24.3782 30.9167 23.2548 30.9167 22.0834C30.9167 20.912 30.4513 19.7886 29.6231 18.9604C28.7948 18.1321 27.6714 17.6667 26.5 17.6667H22.0833V35.3334M30.9167 35.3334L24.2917 26.5001" stroke="white" stroke-width="2" stroke-linecap="round" stroke-linejoin="round"/>
</svg>
