<svg width="19" height="19" viewBox="0 0 19 19" fill="none" xmlns="http://www.w3.org/2000/svg">
<rect width="18.27" height="18.27" fill="white"/>
<path d="M15.225 13.7025H13.7025V7.04161L9.13499 9.89629L4.56749 7.04161V13.7025H3.04499V4.56754H3.95849L9.13499 7.80286L14.3115 4.56754H15.225M15.225 3.04504H3.04499C2.2 3.04504 1.52249 3.72256 1.52249 4.56754V13.7025C1.52249 14.1063 1.6829 14.4936 1.96842 14.7791C2.25395 15.0646 2.6412 15.225 3.04499 15.225H15.225C15.6288 15.225 16.016 15.0646 16.3016 14.7791C16.5871 14.4936 16.7475 14.1063 16.7475 13.7025V4.56754C16.7475 4.16375 16.5871 3.7765 16.3016 3.49097C16.016 3.20545 15.6288 3.04504 15.225 3.04504Z" fill="black"/>
</svg>
